<svg xmlns="http://www.w3.org/2000/svg" viewBox="0 0 24 24" fill="#ffffff">
  <path d="M12 1.75a10.25 10.25 0 0 0-3.24 20c.5.09.68-.21.68-.48v-1.86c-2.78.6-3.37-1.17-3.37-1.17-.45-1.14-1.1-1.44-1.1-1.44-.9-.62.07-.6.07-.6 1 .07 1.53 1.03 1.53 1.03.88 1.52 2.32 1.08 2.89.83.09-.64.35-1.08.63-1.33-2.22-.25-4.56-1.11-4.56-4.94 0-1.09.39-1.99 1.03-2.69-.1-.25-.45-1.28.1-2.66 0 0 .84-.27 2.75 1.03A9.5 9.5 0 0 1 12 6.58c.85 0 1.71.12 2.51.35 1.9-1.3 2.74-1.03 2.74-1.03.56 1.38.21 2.41.1 2.66.64.7 1.03 1.6 1.03 2.69 0 3.84-2.34 4.68-4.57 4.93.36.32.68.95.68 1.92v2.84c0 .27.18.58.69.48A10.25 10.25 0 0 0 12 1.75Z"/>
</svg>
